<?xml version="1.0" standalone="no"?><!DOCTYPE svg PUBLIC "-//W3C//DTD SVG 1.1//EN" "http://www.w3.org/Graphics/SVG/1.1/DTD/svg11.dtd"><svg t="1661431694398" class="icon" viewBox="0 0 1024 1024" version="1.1" xmlns="http://www.w3.org/2000/svg" p-id="1878" xmlns:xlink="http://www.w3.org/1999/xlink" width="200" height="200"><defs><style type="text/css"></style></defs><path d="M236.090453 861.447106a270.08 124.586667 44.999 1 0 176.189078-176.195229 270.08 124.586667 44.999 1 0-176.189078 176.195229Z" fill="#2953FF" p-id="1879"></path><path d="M517.212926 964.328224a124.586667 270.08 44.999 1 0 381.944132-381.957465 124.586667 270.08 44.999 1 0-381.944132 381.957465Z" fill="#2953FF" p-id="1880"></path><path d="M516.266667 171.733333m-117.333334 0a117.333333 117.333333 0 1 0 234.666667 0 117.333333 117.333333 0 1 0-234.666667 0Z" fill="#FF354A" p-id="1881"></path><path d="M516.266667 586.24m-117.333334 0a117.333333 117.333333 0 1 0 234.666667 0 117.333333 117.333333 0 1 0-234.666667 0Z" fill="#FF354A" p-id="1882"></path><path d="M695.68 482.773333m-117.333333 0a117.333333 117.333333 0 1 0 234.666666 0 117.333333 117.333333 0 1 0-234.666666 0Z" fill="#FF354A" p-id="1883"></path><path d="M336.64 275.413333m-117.333333 0a117.333333 117.333333 0 1 0 234.666666 0 117.333333 117.333333 0 1 0-234.666666 0Z" fill="#FF354A" p-id="1884"></path><path d="M695.68 275.413333m-117.333333 0a117.333333 117.333333 0 1 0 234.666666 0 117.333333 117.333333 0 1 0-234.666666 0Z" fill="#FF354A" p-id="1885"></path><path d="M336.64 482.773333m-117.333333 0a117.333333 117.333333 0 1 0 234.666666 0 117.333333 117.333333 0 1 0-234.666666 0Z" fill="#FF354A" p-id="1886"></path><path d="M516.266667 379.093333m-149.333334 0a149.333333 149.333333 0 1 0 298.666667 0 149.333333 149.333333 0 1 0-298.666667 0Z" fill="#FCCA1E" p-id="1887"></path></svg>